<svg width="307" height="195" viewBox="0 0 307 195" fill="none" xmlns="http://www.w3.org/2000/svg">
<g clip-path="url(#clip0_5_149)">
<rect width="307" height="195" rx="13" fill="#373737"/>
<g filter="url(#filter0_i_5_149)">
<rect width="307" height="195" rx="13" fill="#373737"/>
</g>
<g filter="url(#filter1_ii_5_149)">
<circle cx="297.853" cy="185.852" r="5" transform="rotate(-167.867 297.853 185.852)" fill="url(#paint0_linear_5_149)"/>
</g>
<mask id="mask0_5_149" style="mask-type:alpha" maskUnits="userSpaceOnUse" x="292" y="180" width="11" height="11">
<circle cx="297.853" cy="185.852" r="5" transform="rotate(-167.867 297.853 185.852)" fill="url(#paint1_linear_5_149)"/>
</mask>
<g mask="url(#mask0_5_149)">
<g filter="url(#filter2_ii_5_149)">
<rect x="301.604" y="182.354" width="10.1724" height="1" transform="rotate(133.547 301.604 182.354)" fill="#787878"/>
</g>
</g>
<g filter="url(#filter3_ii_5_149)">
<circle cx="9.99998" cy="186" r="5" transform="rotate(59.2836 9.99998 186)" fill="url(#paint2_linear_5_149)"/>
</g>
<mask id="mask1_5_149" style="mask-type:alpha" maskUnits="userSpaceOnUse" x="4" y="180" width="12" height="12">
<circle cx="9.99998" cy="186" r="5" transform="rotate(59.2836 9.99998 186)" fill="url(#paint3_linear_5_149)"/>
</mask>
<g mask="url(#mask1_5_149)">
<g filter="url(#filter4_ii_5_149)">
<rect x="4.88385" y="185.629" width="10.1724" height="1" transform="rotate(0.697606 4.88385 185.629)" fill="#787878"/>
</g>
</g>
<g filter="url(#filter5_ii_5_149)">
<circle cx="10" cy="9" r="5" fill="url(#paint4_linear_5_149)"/>
</g>
<mask id="mask2_5_149" style="mask-type:alpha" maskUnits="userSpaceOnUse" x="5" y="4" width="10" height="10">
<circle cx="10" cy="9" r="5" fill="url(#paint5_linear_5_149)"/>
</mask>
<g mask="url(#mask2_5_149)">
<g filter="url(#filter6_ii_5_149)">
<rect x="7.06799" y="13.209" width="10.1724" height="1" transform="rotate(-58.586 7.06799 13.209)" fill="#787878"/>
</g>
</g>
<g filter="url(#filter7_ii_5_149)">
<circle cx="298" cy="9" r="5" transform="rotate(102.367 298 9)" fill="url(#paint6_linear_5_149)"/>
</g>
<mask id="mask3_5_149" style="mask-type:alpha" maskUnits="userSpaceOnUse" x="292" y="3" width="12" height="12">
<circle cx="298" cy="9" r="5" transform="rotate(102.367 298 9)" fill="url(#paint7_linear_5_149)"/>
</mask>
<g mask="url(#mask3_5_149)">
<g filter="url(#filter8_ii_5_149)">
<rect x="294.517" y="5.23459" width="10.1724" height="1" transform="rotate(43.7809 294.517 5.23459)" fill="#787878"/>
</g>
</g>
<g filter="url(#filter9_iiii_5_149)">
<path d="M15 36C15 24.402 24.402 15 36 15H271C282.598 15 292 24.402 292 36V140C292 142.209 290.209 144 288 144H19C16.7909 144 15 142.209 15 140V36Z" fill="#CFCFC3"/>
</g>
<mask id="mask4_5_149" style="mask-type:alpha" maskUnits="userSpaceOnUse" x="15" y="15" width="277" height="129">
<path d="M15 36C15 24.402 24.402 15 36 15H271C282.598 15 292 24.402 292 36V140C292 142.209 290.209 144 288 144H19C16.7909 144 15 142.209 15 140V36Z" fill="#CFCFC3"/>
</mask>
<g mask="url(#mask4_5_149)">
<g filter="url(#filter10_iii_5_149)">
<rect x="15" y="113" width="277" height="31" fill="#292929"/>
</g>
<path d="M33.016 129.936C32.8773 129.637 32.7333 129.328 32.584 129.008C32.4347 128.688 32.296 128.389 32.168 128.112C32.072 127.909 31.9867 127.733 31.912 127.584C31.848 127.435 31.784 127.291 31.72 127.152C31.656 127.003 31.5867 126.848 31.512 126.688C31.4373 126.517 31.3467 126.309 31.24 126.064C31.1227 126.341 31.0053 126.613 30.888 126.88C30.7707 127.136 30.6533 127.397 30.536 127.664C30.44 127.877 30.3493 128.075 30.264 128.256C30.1893 128.427 30.1093 128.597 30.024 128.768C29.9493 128.928 29.864 129.104 29.768 129.296C29.6827 129.477 29.5867 129.691 29.48 129.936H33.016ZM33.896 131.984H28.616C28.5627 132.101 28.5147 132.213 28.472 132.32C28.44 132.416 28.392 132.528 28.328 132.656V132.64C28.2427 132.843 28.136 133.077 28.008 133.344C27.8907 133.6 27.7893 133.819 27.704 134H24.984L29.864 123.264H32.52L37.544 134H34.84L33.896 131.984ZM49.5316 123.264V134H46.4756L40.6196 126.512V134H38.1396V123.264H41.1956L47.0516 130.832V123.264H49.5316ZM56.7003 125.456V134H54.1562V125.456H50.2523V123.264H60.5403V125.456H56.7003ZM63.6966 128.768L63.7126 130.288C63.734 131.067 63.846 131.536 64.0486 131.696C64.2833 131.899 64.934 132 66.0006 132C67.27 132 68.1393 131.904 68.6086 131.712C68.9393 131.584 69.1206 131.072 69.1526 130.176V129.392C69.1633 129.264 69.1686 129.136 69.1686 129.008C69.1686 128.869 69.1686 128.731 69.1686 128.592V127.024C69.1686 126.139 69.0406 125.637 68.7846 125.52C68.55 125.435 68.2246 125.371 67.8086 125.328C67.3926 125.275 66.8806 125.248 66.2726 125.248H65.8406C64.9233 125.248 64.3313 125.339 64.0646 125.52H64.0806C63.878 125.691 63.7606 126.181 63.7286 126.992L63.6966 128.768ZM61.1686 128.256C61.1686 127.552 61.206 126.923 61.2806 126.368C61.366 125.803 61.4993 125.291 61.6806 124.832C61.8833 124.277 62.3153 123.867 62.9766 123.6C63.6486 123.323 64.534 123.184 65.6326 123.184H66.2246C67.078 123.184 67.8246 123.227 68.4646 123.312C69.1046 123.387 69.6486 123.515 70.0966 123.696H70.0806C70.6246 123.899 71.0246 124.277 71.2806 124.832C71.5473 125.376 71.6806 126.091 71.6806 126.976V127.664C71.6806 128.112 71.6806 128.571 71.6806 129.04C71.6806 129.499 71.67 129.952 71.6486 130.4C71.6273 131.051 71.526 131.621 71.3446 132.112C71.1633 132.603 70.8913 132.992 70.5286 133.28V133.264C69.8673 133.829 68.7153 134.112 67.0726 134.112H66.4966C66.39 134.101 66.2993 134.096 66.2246 134.096C66.1606 134.096 66.086 134.096 66.0006 134.096C65.286 134.096 64.6513 134.048 64.0966 133.952C63.5526 133.845 63.0833 133.707 62.6886 133.536C61.782 133.077 61.2806 132.133 61.1846 130.704C61.174 130.395 61.1686 130.08 61.1686 129.76C61.1686 129.429 61.1686 129.109 61.1686 128.8V128.256ZM82.6191 127.072H80.1391C80.1071 126.208 80.0005 125.701 79.8191 125.552C79.6058 125.392 79.1365 125.312 78.4111 125.312H77.7551C77.6378 125.312 77.4991 125.317 77.3391 125.328C77.1898 125.328 77.0298 125.333 76.8591 125.344H76.6031C76.3898 125.365 76.1818 125.392 75.9791 125.424C75.7765 125.445 75.6378 125.477 75.5631 125.52C75.4671 125.563 75.3978 125.621 75.3551 125.696C75.3231 125.76 75.2965 125.845 75.2751 125.952C75.2645 126.016 75.2591 126.091 75.2591 126.176C75.2591 126.261 75.2591 126.315 75.2591 126.336C75.2591 126.741 75.3231 127.024 75.4511 127.184C75.5045 127.248 75.6165 127.301 75.7871 127.344C75.9685 127.376 76.1978 127.403 76.4751 127.424C76.7205 127.435 76.9658 127.44 77.2111 127.44C77.4671 127.44 77.7125 127.44 77.9471 127.44C78.5338 127.451 79.0991 127.493 79.6431 127.568C80.1871 127.643 80.6831 127.739 81.1311 127.856C81.6645 128.027 82.0805 128.347 82.3791 128.816C82.6885 129.275 82.8431 129.877 82.8431 130.624C82.8431 131.051 82.8005 131.44 82.7151 131.792C82.6405 132.133 82.5285 132.453 82.3791 132.752C82.1978 133.125 81.8991 133.413 81.4831 133.616C81.0671 133.808 80.5231 133.931 79.8511 133.984C79.7978 133.984 79.7338 133.989 79.6591 134C79.5845 134 79.5205 134 79.4671 134C79.3498 134.011 79.2218 134.016 79.0831 134.016C78.9445 134.016 78.8218 134.021 78.7151 134.032C78.5231 134.043 78.3258 134.048 78.1231 134.048C77.9205 134.048 77.7285 134.048 77.5471 134.048C76.2671 134.048 75.1791 133.909 74.2831 133.632C73.1951 133.301 72.6511 132.389 72.6511 130.896C72.6511 130.843 72.6511 130.784 72.6511 130.72C72.6511 130.656 72.6565 130.603 72.6671 130.56C72.6671 130.539 72.6618 130.523 72.6511 130.512C72.6511 130.491 72.6618 130.459 72.6831 130.416C72.6831 130.395 72.6831 130.363 72.6831 130.32C72.6938 130.277 72.6991 130.245 72.6991 130.224V129.84H75.1631C75.1631 130.939 75.2431 131.557 75.4031 131.696C75.4991 131.792 75.6858 131.856 75.9631 131.888C76.2511 131.92 76.6351 131.936 77.1151 131.936H78.2511C78.6885 131.936 79.0618 131.92 79.3711 131.888C79.6805 131.856 79.9151 131.797 80.0751 131.712C80.1285 131.648 80.1765 131.536 80.2191 131.376C80.2725 131.205 80.2991 130.992 80.2991 130.736C80.2991 130.288 80.2405 130.011 80.1231 129.904C80.0058 129.787 79.6325 129.712 79.0031 129.68C78.8218 129.669 78.6405 129.664 78.4591 129.664C78.2885 129.664 78.1125 129.664 77.9311 129.664C77.3018 129.643 76.7045 129.595 76.1391 129.52C75.5845 129.445 75.0511 129.344 74.5391 129.216C73.3338 128.896 72.7311 127.957 72.7311 126.4C72.7311 125.696 72.8591 125.115 73.1151 124.656C73.3711 124.197 73.7391 123.872 74.2191 123.68C75.0298 123.371 76.0858 123.216 77.3871 123.216H77.7231C78.3738 123.216 78.9658 123.248 79.4991 123.312C80.0431 123.365 80.5285 123.461 80.9551 123.6C82.0645 123.92 82.6191 124.832 82.6191 126.336V127.072Z" fill="#E3E3E3"/>
<path d="M209.056 128.768L209.072 130.288C209.093 131.067 209.205 131.536 209.408 131.696C209.643 131.899 210.293 132 211.36 132C212.629 132 213.499 131.904 213.968 131.712C214.299 131.584 214.48 131.072 214.512 130.176V129.392C214.523 129.264 214.528 129.136 214.528 129.008C214.528 128.869 214.528 128.731 214.528 128.592V127.024C214.528 126.139 214.4 125.637 214.144 125.52C213.909 125.435 213.584 125.371 213.168 125.328C212.752 125.275 212.24 125.248 211.632 125.248H211.2C210.283 125.248 209.691 125.339 209.424 125.52H209.44C209.237 125.691 209.12 126.181 209.088 126.992L209.056 128.768ZM206.528 128.256C206.528 127.552 206.565 126.923 206.64 126.368C206.725 125.803 206.859 125.291 207.04 124.832C207.243 124.277 207.675 123.867 208.336 123.6C209.008 123.323 209.893 123.184 210.992 123.184H211.584C212.437 123.184 213.184 123.227 213.824 123.312C214.464 123.387 215.008 123.515 215.456 123.696H215.44C215.984 123.899 216.384 124.277 216.64 124.832C216.907 125.376 217.04 126.091 217.04 126.976V127.664C217.04 128.112 217.04 128.571 217.04 129.04C217.04 129.499 217.029 129.952 217.008 130.4C216.987 131.051 216.885 131.621 216.704 132.112C216.523 132.603 216.251 132.992 215.888 133.28V133.264C215.227 133.829 214.075 134.112 212.432 134.112H211.856C211.749 134.101 211.659 134.096 211.584 134.096C211.52 134.096 211.445 134.096 211.36 134.096C210.645 134.096 210.011 134.048 209.456 133.952C208.912 133.845 208.443 133.707 208.048 133.536C207.141 133.077 206.64 132.133 206.544 130.704C206.533 130.395 206.528 130.08 206.528 129.76C206.528 129.429 206.528 129.109 206.528 128.8V128.256ZM220.635 128.08H223.947C224.725 128.08 225.28 127.989 225.611 127.808V127.824C225.824 127.696 225.931 127.381 225.931 126.88C225.931 126.603 225.909 126.363 225.867 126.16C225.824 125.947 225.765 125.776 225.691 125.648C225.552 125.477 225.12 125.392 224.395 125.392H220.635V128.08ZM218.123 134V123.264H224.379C225.776 123.264 226.789 123.515 227.419 124.016C227.76 124.283 228.021 124.635 228.203 125.072C228.395 125.509 228.491 126.027 228.491 126.624C228.491 126.976 228.464 127.312 228.411 127.632C228.357 127.941 228.283 128.224 228.187 128.48C228.123 128.608 228.048 128.731 227.963 128.848C227.888 128.955 227.776 129.056 227.627 129.152C227.84 129.365 228.011 129.637 228.139 129.968C228.267 130.288 228.331 130.624 228.331 130.976V134H225.786V131.216C225.786 130.811 225.648 130.533 225.371 130.384C225.104 130.235 224.683 130.16 224.107 130.16H220.635V134H218.123ZM231.64 123.264V134H229.112V123.264H231.64ZM237.077 128.08H243.301C243.354 128.485 243.381 128.789 243.381 128.992C243.391 129.195 243.397 129.376 243.397 129.536V130.384C243.397 131.184 243.247 131.931 242.949 132.624C242.607 133.392 241.754 133.851 240.389 134C239.983 134.032 239.573 134.053 239.157 134.064C238.741 134.075 238.319 134.08 237.893 134.08C235.845 134.08 234.431 133.819 233.653 133.296C232.789 132.741 232.357 131.616 232.357 129.92C232.357 129.696 232.357 129.472 232.357 129.248C232.357 129.024 232.362 128.795 232.373 128.56V127.296C232.373 125.867 232.725 124.821 233.429 124.16C234.111 123.52 235.338 123.2 237.109 123.2C237.343 123.2 237.583 123.2 237.829 123.2C238.074 123.2 238.319 123.205 238.565 123.216H238.901H239.973C240.602 123.237 241.13 123.317 241.557 123.456C241.994 123.595 242.341 123.797 242.597 124.064C242.863 124.32 243.055 124.64 243.173 125.024C243.29 125.397 243.349 125.824 243.349 126.304V127.248H240.869C240.869 126.384 240.794 125.835 240.645 125.6C240.581 125.461 240.25 125.387 239.653 125.376C239.247 125.355 238.837 125.344 238.421 125.344C238.015 125.333 237.61 125.328 237.205 125.328C236.117 125.328 235.466 125.429 235.253 125.632C235.157 125.728 235.077 125.925 235.013 126.224C234.959 126.512 234.927 126.901 234.917 127.392C234.917 127.499 234.911 127.6 234.901 127.696C234.901 127.792 234.901 127.888 234.901 127.984V128.592L234.917 129.952C234.917 130.496 234.986 130.971 235.125 131.376V131.36C235.221 131.627 235.567 131.797 236.165 131.872C236.453 131.904 236.746 131.92 237.045 131.92C237.215 131.931 237.375 131.936 237.525 131.936C237.685 131.936 237.85 131.936 238.021 131.936H238.693C239.663 131.936 240.287 131.856 240.565 131.696C240.65 131.611 240.719 131.461 240.773 131.248C240.837 131.035 240.869 130.768 240.869 130.448V130.192H237.077V128.08ZM246.578 123.264V134H244.05V123.264H246.578ZM258.766 123.264V134H255.71L249.854 126.512V134H247.374V123.264H250.43L256.286 130.832V123.264H258.766ZM267.407 129.936C267.268 129.637 267.124 129.328 266.975 129.008C266.825 128.688 266.687 128.389 266.559 128.112C266.463 127.909 266.377 127.733 266.303 127.584C266.239 127.435 266.175 127.291 266.111 127.152C266.047 127.003 265.977 126.848 265.903 126.688C265.828 126.517 265.737 126.309 265.631 126.064C265.513 126.341 265.396 126.613 265.279 126.88C265.161 127.136 265.044 127.397 264.927 127.664C264.831 127.877 264.74 128.075 264.655 128.256C264.58 128.427 264.5 128.597 264.415 128.768C264.34 128.928 264.255 129.104 264.159 129.296C264.073 129.477 263.977 129.691 263.871 129.936H267.407ZM268.287 131.984H263.007C262.953 132.101 262.905 132.213 262.863 132.32C262.831 132.416 262.783 132.528 262.719 132.656V132.64C262.633 132.843 262.527 133.077 262.399 133.344C262.281 133.6 262.18 133.819 262.095 134H259.375L264.255 123.264H266.911L271.935 134H269.231L268.287 131.984ZM274.962 123.264V131.84H281.042V134H272.37V123.264H274.962Z" fill="#E3E3E3"/>
<rect x="15" y="118" width="277" height="1" fill="#E3E3E3"/>
<rect x="15" y="139" width="277" height="1" fill="#E3E3E3"/>
</g>
<g filter="url(#filter11_dddi_5_149)">
<path d="M62 149H244L259 195H47L62 149Z" fill="#373737"/>
</g>
<g filter="url(#filter12_i_5_149)">
<circle cx="80" cy="183" r="7" fill="#F0F0F0"/>
</g>
<g filter="url(#filter13_i_5_149)">
<circle cx="228" cy="183" r="7" fill="#F0F0F0"/>
</g>
<g filter="url(#filter14_i_5_149)">
<circle cx="103" cy="179" r="7" fill="#F0F0F0"/>
</g>
<g filter="url(#filter15_i_5_149)">
<circle cx="197" cy="179" r="7" fill="#F0F0F0"/>
</g>
<g filter="url(#filter16_ii_5_149)">
<circle cx="152.852" cy="164.852" r="5" transform="rotate(-5.97462 152.852 164.852)" fill="url(#paint8_linear_5_149)"/>
</g>
<mask id="mask5_5_149" style="mask-type:alpha" maskUnits="userSpaceOnUse" x="147" y="159" width="11" height="11">
<circle cx="152.852" cy="164.852" r="5" transform="rotate(-5.97462 152.852 164.852)" fill="url(#paint9_linear_5_149)"/>
</mask>
<g mask="url(#mask5_5_149)">
<g filter="url(#filter17_ii_5_149)">
<rect x="150.374" y="169.344" width="10.1724" height="1" transform="rotate(-64.5606 150.374 169.344)" fill="#787878"/>
</g>
</g>
<rect x="64" y="64" width="178" height="47" rx="23.5" fill="#1B1B1B"/>
<g filter="url(#filter18_i_5_149)">
<g filter="url(#filter19_ii_5_149)">
<circle cx="90.5" cy="87.5" r="17.5" fill="#C4C4C4"/>
</g>
<circle cx="90.5" cy="87.5" r="13.5" fill="#FCFCFC"/>
<mask id="mask6_5_149" style="mask-type:alpha" maskUnits="userSpaceOnUse" x="73" y="70" width="35" height="35">
<circle cx="90.5" cy="87.5" r="17.5" fill="#D9D9D9"/>
</mask>
<g mask="url(#mask6_5_149)">
<rect x="88" y="70" width="5" height="7" fill="#C4C4C4"/>
<rect x="88" y="98" width="5" height="7" fill="#C4C4C4"/>
<rect x="103.466" y="75.4839" width="5" height="7" transform="rotate(55.3075 103.466 75.4839)" fill="#C4C4C4"/>
<rect x="80.4437" y="91.4208" width="5" height="7" transform="rotate(55.3075 80.4437 91.4208)" fill="#C4C4C4"/>
<rect x="74.9177" y="79.1519" width="5" height="7" transform="rotate(-53.6901 74.9177 79.1519)" fill="#C4C4C4"/>
<rect x="97.4808" y="95.7322" width="5" height="7" transform="rotate(-53.6901 97.4808 95.7322)" fill="#C4C4C4"/>
</g>
</g>
<g filter="url(#filter20_i_5_149)">
<g filter="url(#filter21_ii_5_149)">
<circle cx="215.5" cy="87.5" r="17.5" fill="#C4C4C4"/>
</g>
<circle cx="215.5" cy="87.5" r="13.5" fill="#FCFCFC"/>
<mask id="mask7_5_149" style="mask-type:alpha" maskUnits="userSpaceOnUse" x="198" y="70" width="35" height="35">
<circle cx="215.5" cy="87.5" r="17.5" fill="#D9D9D9"/>
</mask>
<g mask="url(#mask7_5_149)">
<rect x="213" y="70" width="5" height="7" fill="#C4C4C4"/>
<rect x="213" y="98" width="5" height="7" fill="#C4C4C4"/>
<rect x="228.466" y="75.4839" width="5" height="7" transform="rotate(55.3075 228.466 75.4839)" fill="#C4C4C4"/>
<rect x="205.444" y="91.4208" width="5" height="7" transform="rotate(55.3075 205.444 91.4208)" fill="#C4C4C4"/>
<rect x="199.918" y="79.1519" width="5" height="7" transform="rotate(-53.6901 199.918 79.1519)" fill="#C4C4C4"/>
<rect x="222.481" y="95.7322" width="5" height="7" transform="rotate(-53.6901 222.481 95.7322)" fill="#C4C4C4"/>
</g>
</g>
<rect x="116" y="72" width="75" height="29" rx="14.5" fill="#EAEAEA"/>
<mask id="mask8_5_149" style="mask-type:alpha" maskUnits="userSpaceOnUse" x="116" y="72" width="75" height="29">
<rect x="116" y="72" width="75" height="29" rx="14.5" fill="#D9D9D9"/>
</mask>
<g mask="url(#mask8_5_149)">
<circle cx="219.5" cy="86.5" r="69.5" fill="#1D1D1D"/>
<circle cx="219.5" cy="87.5" r="38.5" fill="#D9D9D9"/>
<circle cx="89.5" cy="86.5" r="43.5" fill="#1D1D1D"/>
<circle cx="89.5" cy="87.5" r="38.5" fill="#D9D9D9"/>
<g style="mix-blend-mode:screen">
<rect x="116" y="72" width="75" height="29" rx="14.5" fill="url(#paint10_linear_5_149)" fill-opacity="0.27"/>
</g>
<g filter="url(#filter22_f_5_149)">
<rect x="116" y="72" width="75" height="29" rx="14.5" fill="#EAEAEA" fill-opacity="0.1"/>
</g>
</g>
</g>
<defs>
<filter id="filter0_i_5_149" x="0" y="0" width="307" height="196" filterUnits="userSpaceOnUse" color-interpolation-filters="sRGB">
<feFlood flood-opacity="0" result="BackgroundImageFix"/>
<feBlend mode="normal" in="SourceGraphic" in2="BackgroundImageFix" result="shape"/>
<feColorMatrix in="SourceAlpha" type="matrix" values="0 0 0 0 0 0 0 0 0 0 0 0 0 0 0 0 0 0 127 0" result="hardAlpha"/>
<feOffset dy="1"/>
<feGaussianBlur stdDeviation="1"/>
<feComposite in2="hardAlpha" operator="arithmetic" k2="-1" k3="1"/>
<feColorMatrix type="matrix" values="0 0 0 0 0.888216 0 0 0 0 0.888216 0 0 0 0 0.888216 0 0 0 0.35 0"/>
<feBlend mode="normal" in2="shape" result="effect1_innerShadow_5_149"/>
</filter>
<filter id="filter1_ii_5_149" x="292.851" y="180.281" width="10.0021" height="10.7721" filterUnits="userSpaceOnUse" color-interpolation-filters="sRGB">
<feFlood flood-opacity="0" result="BackgroundImageFix"/>
<feBlend mode="normal" in="SourceGraphic" in2="BackgroundImageFix" result="shape"/>
<feColorMatrix in="SourceAlpha" type="matrix" values="0 0 0 0 0 0 0 0 0 0 0 0 0 0 0 0 0 0 127 0" result="hardAlpha"/>
<feOffset dy="-0.57"/>
<feGaussianBlur stdDeviation="0.4"/>
<feComposite in2="hardAlpha" operator="arithmetic" k2="-1" k3="1"/>
<feColorMatrix type="matrix" values="0 0 0 0 1 0 0 0 0 1 0 0 0 0 1 0 0 0 0.37 0"/>
<feBlend mode="normal" in2="shape" result="effect1_innerShadow_5_149"/>
<feColorMatrix in="SourceAlpha" type="matrix" values="0 0 0 0 0 0 0 0 0 0 0 0 0 0 0 0 0 0 127 0" result="hardAlpha"/>
<feOffset dy="0.2"/>
<feGaussianBlur stdDeviation="0.2"/>
<feComposite in2="hardAlpha" operator="arithmetic" k2="-1" k3="1"/>
<feColorMatrix type="matrix" values="0 0 0 0 0.98623 0 0 0 0 0.98623 0 0 0 0 0.98623 0 0 0 0.42 0"/>
<feBlend mode="normal" in2="effect1_innerShadow_5_149" result="effect2_innerShadow_5_149"/>
</filter>
<filter id="filter2_ii_5_149" x="293.871" y="181.565" width="7.73303" height="8.26201" filterUnits="userSpaceOnUse" color-interpolation-filters="sRGB">
<feFlood flood-opacity="0" result="BackgroundImageFix"/>
<feBlend mode="normal" in="SourceGraphic" in2="BackgroundImageFix" result="shape"/>
<feColorMatrix in="SourceAlpha" type="matrix" values="0 0 0 0 0 0 0 0 0 0 0 0 0 0 0 0 0 0 127 0" result="hardAlpha"/>
<feOffset dy="0.1"/>
<feGaussianBlur stdDeviation="0.1"/>
<feComposite in2="hardAlpha" operator="arithmetic" k2="-1" k3="1"/>
<feColorMatrix type="matrix" values="0 0 0 0 0.112712 0 0 0 0 0.112712 0 0 0 0 0.112712 0 0 0 0.31 0"/>
<feBlend mode="normal" in2="shape" result="effect1_innerShadow_5_149"/>
<feColorMatrix in="SourceAlpha" type="matrix" values="0 0 0 0 0 0 0 0 0 0 0 0 0 0 0 0 0 0 127 0" result="hardAlpha"/>
<feOffset dy="-0.2"/>
<feGaussianBlur stdDeviation="0.05"/>
<feComposite in2="hardAlpha" operator="arithmetic" k2="-1" k3="1"/>
<feColorMatrix type="matrix" values="0 0 0 0 0 0 0 0 0 0 0 0 0 0 0 0 0 0 0.25 0"/>
<feBlend mode="normal" in2="effect1_innerShadow_5_149" result="effect2_innerShadow_5_149"/>
</filter>
<filter id="filter3_ii_5_149" x="4.99921" y="180.429" width="10.0015" height="10.7716" filterUnits="userSpaceOnUse" color-interpolation-filters="sRGB">
<feFlood flood-opacity="0" result="BackgroundImageFix"/>
<feBlend mode="normal" in="SourceGraphic" in2="BackgroundImageFix" result="shape"/>
<feColorMatrix in="SourceAlpha" type="matrix" values="0 0 0 0 0 0 0 0 0 0 0 0 0 0 0 0 0 0 127 0" result="hardAlpha"/>
<feOffset dy="-0.57"/>
<feGaussianBlur stdDeviation="0.4"/>
<feComposite in2="hardAlpha" operator="arithmetic" k2="-1" k3="1"/>
<feColorMatrix type="matrix" values="0 0 0 0 1 0 0 0 0 1 0 0 0 0 1 0 0 0 0.37 0"/>
<feBlend mode="normal" in2="shape" result="effect1_innerShadow_5_149"/>
<feColorMatrix in="SourceAlpha" type="matrix" values="0 0 0 0 0 0 0 0 0 0 0 0 0 0 0 0 0 0 127 0" result="hardAlpha"/>
<feOffset dy="0.2"/>
<feGaussianBlur stdDeviation="0.2"/>
<feComposite in2="hardAlpha" operator="arithmetic" k2="-1" k3="1"/>
<feColorMatrix type="matrix" values="0 0 0 0 0.98623 0 0 0 0 0.98623 0 0 0 0 0.98623 0 0 0 0.42 0"/>
<feBlend mode="normal" in2="effect1_innerShadow_5_149" result="effect2_innerShadow_5_149"/>
</filter>
<filter id="filter4_ii_5_149" x="4.8717" y="185.529" width="10.1838" height="1.32378" filterUnits="userSpaceOnUse" color-interpolation-filters="sRGB">
<feFlood flood-opacity="0" result="BackgroundImageFix"/>
<feBlend mode="normal" in="SourceGraphic" in2="BackgroundImageFix" result="shape"/>
<feColorMatrix in="SourceAlpha" type="matrix" values="0 0 0 0 0 0 0 0 0 0 0 0 0 0 0 0 0 0 127 0" result="hardAlpha"/>
<feOffset dy="0.1"/>
<feGaussianBlur stdDeviation="0.1"/>
<feComposite in2="hardAlpha" operator="arithmetic" k2="-1" k3="1"/>
<feColorMatrix type="matrix" values="0 0 0 0 0.112712 0 0 0 0 0.112712 0 0 0 0 0.112712 0 0 0 0.31 0"/>
<feBlend mode="normal" in2="shape" result="effect1_innerShadow_5_149"/>
<feColorMatrix in="SourceAlpha" type="matrix" values="0 0 0 0 0 0 0 0 0 0 0 0 0 0 0 0 0 0 127 0" result="hardAlpha"/>
<feOffset dy="-0.2"/>
<feGaussianBlur stdDeviation="0.05"/>
<feComposite in2="hardAlpha" operator="arithmetic" k2="-1" k3="1"/>
<feColorMatrix type="matrix" values="0 0 0 0 0 0 0 0 0 0 0 0 0 0 0 0 0 0 0.25 0"/>
<feBlend mode="normal" in2="effect1_innerShadow_5_149" result="effect2_innerShadow_5_149"/>
</filter>
<filter id="filter5_ii_5_149" x="5" y="3.43" width="10" height="10.77" filterUnits="userSpaceOnUse" color-interpolation-filters="sRGB">
<feFlood flood-opacity="0" result="BackgroundImageFix"/>
<feBlend mode="normal" in="SourceGraphic" in2="BackgroundImageFix" result="shape"/>
<feColorMatrix in="SourceAlpha" type="matrix" values="0 0 0 0 0 0 0 0 0 0 0 0 0 0 0 0 0 0 127 0" result="hardAlpha"/>
<feOffset dy="-0.57"/>
<feGaussianBlur stdDeviation="0.4"/>
<feComposite in2="hardAlpha" operator="arithmetic" k2="-1" k3="1"/>
<feColorMatrix type="matrix" values="0 0 0 0 1 0 0 0 0 1 0 0 0 0 1 0 0 0 0.37 0"/>
<feBlend mode="normal" in2="shape" result="effect1_innerShadow_5_149"/>
<feColorMatrix in="SourceAlpha" type="matrix" values="0 0 0 0 0 0 0 0 0 0 0 0 0 0 0 0 0 0 127 0" result="hardAlpha"/>
<feOffset dy="0.2"/>
<feGaussianBlur stdDeviation="0.2"/>
<feComposite in2="hardAlpha" operator="arithmetic" k2="-1" k3="1"/>
<feColorMatrix type="matrix" values="0 0 0 0 0.98623 0 0 0 0 0.98623 0 0 0 0 0.98623 0 0 0 0.42 0"/>
<feBlend mode="normal" in2="effect1_innerShadow_5_149" result="effect2_innerShadow_5_149"/>
</filter>
<filter id="filter6_ii_5_149" x="7.06799" y="4.4276" width="6.15546" height="9.40258" filterUnits="userSpaceOnUse" color-interpolation-filters="sRGB">
<feFlood flood-opacity="0" result="BackgroundImageFix"/>
<feBlend mode="normal" in="SourceGraphic" in2="BackgroundImageFix" result="shape"/>
<feColorMatrix in="SourceAlpha" type="matrix" values="0 0 0 0 0 0 0 0 0 0 0 0 0 0 0 0 0 0 127 0" result="hardAlpha"/>
<feOffset dy="0.1"/>
<feGaussianBlur stdDeviation="0.1"/>
<feComposite in2="hardAlpha" operator="arithmetic" k2="-1" k3="1"/>
<feColorMatrix type="matrix" values="0 0 0 0 0.112712 0 0 0 0 0.112712 0 0 0 0 0.112712 0 0 0 0.31 0"/>
<feBlend mode="normal" in2="shape" result="effect1_innerShadow_5_149"/>
<feColorMatrix in="SourceAlpha" type="matrix" values="0 0 0 0 0 0 0 0 0 0 0 0 0 0 0 0 0 0 127 0" result="hardAlpha"/>
<feOffset dy="-0.2"/>
<feGaussianBlur stdDeviation="0.05"/>
<feComposite in2="hardAlpha" operator="arithmetic" k2="-1" k3="1"/>
<feColorMatrix type="matrix" values="0 0 0 0 0 0 0 0 0 0 0 0 0 0 0 0 0 0 0.25 0"/>
<feBlend mode="normal" in2="effect1_innerShadow_5_149" result="effect2_innerShadow_5_149"/>
</filter>
<filter id="filter7_ii_5_149" x="292.999" y="3.42894" width="10.0022" height="10.7721" filterUnits="userSpaceOnUse" color-interpolation-filters="sRGB">
<feFlood flood-opacity="0" result="BackgroundImageFix"/>
<feBlend mode="normal" in="SourceGraphic" in2="BackgroundImageFix" result="shape"/>
<feColorMatrix in="SourceAlpha" type="matrix" values="0 0 0 0 0 0 0 0 0 0 0 0 0 0 0 0 0 0 127 0" result="hardAlpha"/>
<feOffset dy="-0.57"/>
<feGaussianBlur stdDeviation="0.4"/>
<feComposite in2="hardAlpha" operator="arithmetic" k2="-1" k3="1"/>
<feColorMatrix type="matrix" values="0 0 0 0 1 0 0 0 0 1 0 0 0 0 1 0 0 0 0.37 0"/>
<feBlend mode="normal" in2="shape" result="effect1_innerShadow_5_149"/>
<feColorMatrix in="SourceAlpha" type="matrix" values="0 0 0 0 0 0 0 0 0 0 0 0 0 0 0 0 0 0 127 0" result="hardAlpha"/>
<feOffset dy="0.2"/>
<feGaussianBlur stdDeviation="0.2"/>
<feComposite in2="hardAlpha" operator="arithmetic" k2="-1" k3="1"/>
<feColorMatrix type="matrix" values="0 0 0 0 0.98623 0 0 0 0 0.98623 0 0 0 0 0.98623 0 0 0 0.42 0"/>
<feBlend mode="normal" in2="effect1_innerShadow_5_149" result="effect2_innerShadow_5_149"/>
</filter>
<filter id="filter8_ii_5_149" x="293.825" y="5.13459" width="8.03625" height="7.96029" filterUnits="userSpaceOnUse" color-interpolation-filters="sRGB">
<feFlood flood-opacity="0" result="BackgroundImageFix"/>
<feBlend mode="normal" in="SourceGraphic" in2="BackgroundImageFix" result="shape"/>
<feColorMatrix in="SourceAlpha" type="matrix" values="0 0 0 0 0 0 0 0 0 0 0 0 0 0 0 0 0 0 127 0" result="hardAlpha"/>
<feOffset dy="0.1"/>
<feGaussianBlur stdDeviation="0.1"/>
<feComposite in2="hardAlpha" operator="arithmetic" k2="-1" k3="1"/>
<feColorMatrix type="matrix" values="0 0 0 0 0.112712 0 0 0 0 0.112712 0 0 0 0 0.112712 0 0 0 0.31 0"/>
<feBlend mode="normal" in2="shape" result="effect1_innerShadow_5_149"/>
<feColorMatrix in="SourceAlpha" type="matrix" values="0 0 0 0 0 0 0 0 0 0 0 0 0 0 0 0 0 0 127 0" result="hardAlpha"/>
<feOffset dy="-0.2"/>
<feGaussianBlur stdDeviation="0.05"/>
<feComposite in2="hardAlpha" operator="arithmetic" k2="-1" k3="1"/>
<feColorMatrix type="matrix" values="0 0 0 0 0 0 0 0 0 0 0 0 0 0 0 0 0 0 0.25 0"/>
<feBlend mode="normal" in2="effect1_innerShadow_5_149" result="effect2_innerShadow_5_149"/>
</filter>
<filter id="filter9_iiii_5_149" x="13" y="13" width="281" height="133" filterUnits="userSpaceOnUse" color-interpolation-filters="sRGB">
<feFlood flood-opacity="0" result="BackgroundImageFix"/>
<feBlend mode="normal" in="SourceGraphic" in2="BackgroundImageFix" result="shape"/>
<feColorMatrix in="SourceAlpha" type="matrix" values="0 0 0 0 0 0 0 0 0 0 0 0 0 0 0 0 0 0 127 0" result="hardAlpha"/>
<feOffset dx="-2"/>
<feGaussianBlur stdDeviation="1"/>
<feComposite in2="hardAlpha" operator="arithmetic" k2="-1" k3="1"/>
<feColorMatrix type="matrix" values="0 0 0 0 0 0 0 0 0 0 0 0 0 0 0 0 0 0 0.6 0"/>
<feBlend mode="normal" in2="shape" result="effect1_innerShadow_5_149"/>
<feColorMatrix in="SourceAlpha" type="matrix" values="0 0 0 0 0 0 0 0 0 0 0 0 0 0 0 0 0 0 127 0" result="hardAlpha"/>
<feOffset dx="2"/>
<feGaussianBlur stdDeviation="1"/>
<feComposite in2="hardAlpha" operator="arithmetic" k2="-1" k3="1"/>
<feColorMatrix type="matrix" values="0 0 0 0 0 0 0 0 0 0 0 0 0 0 0 0 0 0 0.6 0"/>
<feBlend mode="normal" in2="effect1_innerShadow_5_149" result="effect2_innerShadow_5_149"/>
<feColorMatrix in="SourceAlpha" type="matrix" values="0 0 0 0 0 0 0 0 0 0 0 0 0 0 0 0 0 0 127 0" result="hardAlpha"/>
<feOffset dy="-2"/>
<feGaussianBlur stdDeviation="1"/>
<feComposite in2="hardAlpha" operator="arithmetic" k2="-1" k3="1"/>
<feColorMatrix type="matrix" values="0 0 0 0 0 0 0 0 0 0 0 0 0 0 0 0 0 0 0.6 0"/>
<feBlend mode="normal" in2="effect2_innerShadow_5_149" result="effect3_innerShadow_5_149"/>
<feColorMatrix in="SourceAlpha" type="matrix" values="0 0 0 0 0 0 0 0 0 0 0 0 0 0 0 0 0 0 127 0" result="hardAlpha"/>
<feOffset dy="2"/>
<feGaussianBlur stdDeviation="1"/>
<feComposite in2="hardAlpha" operator="arithmetic" k2="-1" k3="1"/>
<feColorMatrix type="matrix" values="0 0 0 0 0 0 0 0 0 0 0 0 0 0 0 0 0 0 0.6 0"/>
<feBlend mode="normal" in2="effect3_innerShadow_5_149" result="effect4_innerShadow_5_149"/>
</filter>
<filter id="filter10_iii_5_149" x="13" y="111" width="281" height="33" filterUnits="userSpaceOnUse" color-interpolation-filters="sRGB">
<feFlood flood-opacity="0" result="BackgroundImageFix"/>
<feBlend mode="normal" in="SourceGraphic" in2="BackgroundImageFix" result="shape"/>
<feColorMatrix in="SourceAlpha" type="matrix" values="0 0 0 0 0 0 0 0 0 0 0 0 0 0 0 0 0 0 127 0" result="hardAlpha"/>
<feOffset dx="-2"/>
<feGaussianBlur stdDeviation="1"/>
<feComposite in2="hardAlpha" operator="arithmetic" k2="-1" k3="1"/>
<feColorMatrix type="matrix" values="0 0 0 0 0 0 0 0 0 0 0 0 0 0 0 0 0 0 0.6 0"/>
<feBlend mode="normal" in2="shape" result="effect1_innerShadow_5_149"/>
<feColorMatrix in="SourceAlpha" type="matrix" values="0 0 0 0 0 0 0 0 0 0 0 0 0 0 0 0 0 0 127 0" result="hardAlpha"/>
<feOffset dx="2"/>
<feGaussianBlur stdDeviation="1"/>
<feComposite in2="hardAlpha" operator="arithmetic" k2="-1" k3="1"/>
<feColorMatrix type="matrix" values="0 0 0 0 0 0 0 0 0 0 0 0 0 0 0 0 0 0 0.6 0"/>
<feBlend mode="normal" in2="effect1_innerShadow_5_149" result="effect2_innerShadow_5_149"/>
<feColorMatrix in="SourceAlpha" type="matrix" values="0 0 0 0 0 0 0 0 0 0 0 0 0 0 0 0 0 0 127 0" result="hardAlpha"/>
<feOffset dy="-2"/>
<feGaussianBlur stdDeviation="1"/>
<feComposite in2="hardAlpha" operator="arithmetic" k2="-1" k3="1"/>
<feColorMatrix type="matrix" values="0 0 0 0 0 0 0 0 0 0 0 0 0 0 0 0 0 0 0.6 0"/>
<feBlend mode="normal" in2="effect2_innerShadow_5_149" result="effect3_innerShadow_5_149"/>
</filter>
<filter id="filter11_dddi_5_149" x="44" y="145.6" width="218" height="50.4" filterUnits="userSpaceOnUse" color-interpolation-filters="sRGB">
<feFlood flood-opacity="0" result="BackgroundImageFix"/>
<feColorMatrix in="SourceAlpha" type="matrix" values="0 0 0 0 0 0 0 0 0 0 0 0 0 0 0 0 0 0 127 0" result="hardAlpha"/>
<feOffset dx="-1" dy="-1"/>
<feGaussianBlur stdDeviation="1"/>
<feComposite in2="hardAlpha" operator="out"/>
<feColorMatrix type="matrix" values="0 0 0 0 0.0881836 0 0 0 0 0.0881836 0 0 0 0 0.0881836 0 0 0 0.65 0"/>
<feBlend mode="normal" in2="BackgroundImageFix" result="effect1_dropShadow_5_149"/>
<feColorMatrix in="SourceAlpha" type="matrix" values="0 0 0 0 0 0 0 0 0 0 0 0 0 0 0 0 0 0 127 0" result="hardAlpha"/>
<feOffset dx="1" dy="-1"/>
<feGaussianBlur stdDeviation="1"/>
<feComposite in2="hardAlpha" operator="out"/>
<feColorMatrix type="matrix" values="0 0 0 0 0.0881836 0 0 0 0 0.0881836 0 0 0 0 0.0881836 0 0 0 0.65 0"/>
<feBlend mode="normal" in2="effect1_dropShadow_5_149" result="effect2_dropShadow_5_149"/>
<feColorMatrix in="SourceAlpha" type="matrix" values="0 0 0 0 0 0 0 0 0 0 0 0 0 0 0 0 0 0 127 0" result="hardAlpha"/>
<feOffset dy="-1.4"/>
<feGaussianBlur stdDeviation="1"/>
<feComposite in2="hardAlpha" operator="out"/>
<feColorMatrix type="matrix" values="0 0 0 0 0.0881836 0 0 0 0 0.0881836 0 0 0 0 0.0881836 0 0 0 0.65 0"/>
<feBlend mode="normal" in2="effect2_dropShadow_5_149" result="effect3_dropShadow_5_149"/>
<feBlend mode="normal" in="SourceGraphic" in2="effect3_dropShadow_5_149" result="shape"/>
<feColorMatrix in="SourceAlpha" type="matrix" values="0 0 0 0 0 0 0 0 0 0 0 0 0 0 0 0 0 0 127 0" result="hardAlpha"/>
<feOffset dy="0.6"/>
<feGaussianBlur stdDeviation="1"/>
<feComposite in2="hardAlpha" operator="arithmetic" k2="-1" k3="1"/>
<feColorMatrix type="matrix" values="0 0 0 0 1 0 0 0 0 1 0 0 0 0 1 0 0 0 0.27 0"/>
<feBlend mode="normal" in2="shape" result="effect4_innerShadow_5_149"/>
</filter>
<filter id="filter12_i_5_149" x="73" y="176" width="14" height="14" filterUnits="userSpaceOnUse" color-interpolation-filters="sRGB">
<feFlood flood-opacity="0" result="BackgroundImageFix"/>
<feBlend mode="normal" in="SourceGraphic" in2="BackgroundImageFix" result="shape"/>
<feColorMatrix in="SourceAlpha" type="matrix" values="0 0 0 0 0 0 0 0 0 0 0 0 0 0 0 0 0 0 127 0" result="hardAlpha"/>
<feOffset dx="2" dy="-5"/>
<feComposite in2="hardAlpha" operator="arithmetic" k2="-1" k3="1"/>
<feColorMatrix type="matrix" values="0 0 0 0 0.139551 0 0 0 0 0.139551 0 0 0 0 0.139551 0 0 0 1 0"/>
<feBlend mode="normal" in2="shape" result="effect1_innerShadow_5_149"/>
</filter>
<filter id="filter13_i_5_149" x="221" y="176" width="14" height="14" filterUnits="userSpaceOnUse" color-interpolation-filters="sRGB">
<feFlood flood-opacity="0" result="BackgroundImageFix"/>
<feBlend mode="normal" in="SourceGraphic" in2="BackgroundImageFix" result="shape"/>
<feColorMatrix in="SourceAlpha" type="matrix" values="0 0 0 0 0 0 0 0 0 0 0 0 0 0 0 0 0 0 127 0" result="hardAlpha"/>
<feOffset dx="-3" dy="-5"/>
<feComposite in2="hardAlpha" operator="arithmetic" k2="-1" k3="1"/>
<feColorMatrix type="matrix" values="0 0 0 0 0.139551 0 0 0 0 0.139551 0 0 0 0 0.139551 0 0 0 1 0"/>
<feBlend mode="normal" in2="shape" result="effect1_innerShadow_5_149"/>
</filter>
<filter id="filter14_i_5_149" x="96" y="172" width="14" height="14" filterUnits="userSpaceOnUse" color-interpolation-filters="sRGB">
<feFlood flood-opacity="0" result="BackgroundImageFix"/>
<feBlend mode="normal" in="SourceGraphic" in2="BackgroundImageFix" result="shape"/>
<feColorMatrix in="SourceAlpha" type="matrix" values="0 0 0 0 0 0 0 0 0 0 0 0 0 0 0 0 0 0 127 0" result="hardAlpha"/>
<feOffset dx="3" dy="-4"/>
<feComposite in2="hardAlpha" operator="arithmetic" k2="-1" k3="1"/>
<feColorMatrix type="matrix" values="0 0 0 0 0.139551 0 0 0 0 0.139551 0 0 0 0 0.139551 0 0 0 1 0"/>
<feBlend mode="normal" in2="shape" result="effect1_innerShadow_5_149"/>
</filter>
<filter id="filter15_i_5_149" x="190" y="172" width="14" height="14" filterUnits="userSpaceOnUse" color-interpolation-filters="sRGB">
<feFlood flood-opacity="0" result="BackgroundImageFix"/>
<feBlend mode="normal" in="SourceGraphic" in2="BackgroundImageFix" result="shape"/>
<feColorMatrix in="SourceAlpha" type="matrix" values="0 0 0 0 0 0 0 0 0 0 0 0 0 0 0 0 0 0 127 0" result="hardAlpha"/>
<feOffset dx="-1" dy="-4"/>
<feComposite in2="hardAlpha" operator="arithmetic" k2="-1" k3="1"/>
<feColorMatrix type="matrix" values="0 0 0 0 0.139551 0 0 0 0 0.139551 0 0 0 0 0.139551 0 0 0 1 0"/>
<feBlend mode="normal" in2="shape" result="effect1_innerShadow_5_149"/>
</filter>
<filter id="filter16_ii_5_149" x="147.852" y="159.282" width="10.0007" height="10.7708" filterUnits="userSpaceOnUse" color-interpolation-filters="sRGB">
<feFlood flood-opacity="0" result="BackgroundImageFix"/>
<feBlend mode="normal" in="SourceGraphic" in2="BackgroundImageFix" result="shape"/>
<feColorMatrix in="SourceAlpha" type="matrix" values="0 0 0 0 0 0 0 0 0 0 0 0 0 0 0 0 0 0 127 0" result="hardAlpha"/>
<feOffset dy="-0.57"/>
<feGaussianBlur stdDeviation="0.4"/>
<feComposite in2="hardAlpha" operator="arithmetic" k2="-1" k3="1"/>
<feColorMatrix type="matrix" values="0 0 0 0 1 0 0 0 0 1 0 0 0 0 1 0 0 0 0.37 0"/>
<feBlend mode="normal" in2="shape" result="effect1_innerShadow_5_149"/>
<feColorMatrix in="SourceAlpha" type="matrix" values="0 0 0 0 0 0 0 0 0 0 0 0 0 0 0 0 0 0 127 0" result="hardAlpha"/>
<feOffset dy="0.2"/>
<feGaussianBlur stdDeviation="0.2"/>
<feComposite in2="hardAlpha" operator="arithmetic" k2="-1" k3="1"/>
<feColorMatrix type="matrix" values="0 0 0 0 0.98623 0 0 0 0 0.98623 0 0 0 0 0.98623 0 0 0 0.42 0"/>
<feBlend mode="normal" in2="effect1_innerShadow_5_149" result="effect2_innerShadow_5_149"/>
</filter>
<filter id="filter17_ii_5_149" x="150.374" y="160.058" width="5.27271" height="9.81563" filterUnits="userSpaceOnUse" color-interpolation-filters="sRGB">
<feFlood flood-opacity="0" result="BackgroundImageFix"/>
<feBlend mode="normal" in="SourceGraphic" in2="BackgroundImageFix" result="shape"/>
<feColorMatrix in="SourceAlpha" type="matrix" values="0 0 0 0 0 0 0 0 0 0 0 0 0 0 0 0 0 0 127 0" result="hardAlpha"/>
<feOffset dy="0.1"/>
<feGaussianBlur stdDeviation="0.1"/>
<feComposite in2="hardAlpha" operator="arithmetic" k2="-1" k3="1"/>
<feColorMatrix type="matrix" values="0 0 0 0 0.112712 0 0 0 0 0.112712 0 0 0 0 0.112712 0 0 0 0.31 0"/>
<feBlend mode="normal" in2="shape" result="effect1_innerShadow_5_149"/>
<feColorMatrix in="SourceAlpha" type="matrix" values="0 0 0 0 0 0 0 0 0 0 0 0 0 0 0 0 0 0 127 0" result="hardAlpha"/>
<feOffset dy="-0.2"/>
<feGaussianBlur stdDeviation="0.05"/>
<feComposite in2="hardAlpha" operator="arithmetic" k2="-1" k3="1"/>
<feColorMatrix type="matrix" values="0 0 0 0 0 0 0 0 0 0 0 0 0 0 0 0 0 0 0.25 0"/>
<feBlend mode="normal" in2="effect1_innerShadow_5_149" result="effect2_innerShadow_5_149"/>
</filter>
<filter id="filter18_i_5_149" x="73" y="70" width="35" height="37" filterUnits="userSpaceOnUse" color-interpolation-filters="sRGB">
<feFlood flood-opacity="0" result="BackgroundImageFix"/>
<feBlend mode="normal" in="SourceGraphic" in2="BackgroundImageFix" result="shape"/>
<feColorMatrix in="SourceAlpha" type="matrix" values="0 0 0 0 0 0 0 0 0 0 0 0 0 0 0 0 0 0 127 0" result="hardAlpha"/>
<feOffset dy="3"/>
<feGaussianBlur stdDeviation="1"/>
<feComposite in2="hardAlpha" operator="arithmetic" k2="-1" k3="1"/>
<feColorMatrix type="matrix" values="0 0 0 0 0 0 0 0 0 0 0 0 0 0 0 0 0 0 0.4 0"/>
<feBlend mode="normal" in2="shape" result="effect1_innerShadow_5_149"/>
</filter>
<filter id="filter19_ii_5_149" x="73" y="68" width="35" height="39" filterUnits="userSpaceOnUse" color-interpolation-filters="sRGB">
<feFlood flood-opacity="0" result="BackgroundImageFix"/>
<feBlend mode="normal" in="SourceGraphic" in2="BackgroundImageFix" result="shape"/>
<feColorMatrix in="SourceAlpha" type="matrix" values="0 0 0 0 0 0 0 0 0 0 0 0 0 0 0 0 0 0 127 0" result="hardAlpha"/>
<feOffset dy="-2"/>
<feGaussianBlur stdDeviation="1"/>
<feComposite in2="hardAlpha" operator="arithmetic" k2="-1" k3="1"/>
<feColorMatrix type="matrix" values="0 0 0 0 0 0 0 0 0 0 0 0 0 0 0 0 0 0 0.28 0"/>
<feBlend mode="normal" in2="shape" result="effect1_innerShadow_5_149"/>
<feColorMatrix in="SourceAlpha" type="matrix" values="0 0 0 0 0 0 0 0 0 0 0 0 0 0 0 0 0 0 127 0" result="hardAlpha"/>
<feOffset dy="2"/>
<feGaussianBlur stdDeviation="1"/>
<feComposite in2="hardAlpha" operator="arithmetic" k2="-1" k3="1"/>
<feColorMatrix type="matrix" values="0 0 0 0 0 0 0 0 0 0 0 0 0 0 0 0 0 0 0.28 0"/>
<feBlend mode="normal" in2="effect1_innerShadow_5_149" result="effect2_innerShadow_5_149"/>
</filter>
<filter id="filter20_i_5_149" x="198" y="70" width="35" height="37" filterUnits="userSpaceOnUse" color-interpolation-filters="sRGB">
<feFlood flood-opacity="0" result="BackgroundImageFix"/>
<feBlend mode="normal" in="SourceGraphic" in2="BackgroundImageFix" result="shape"/>
<feColorMatrix in="SourceAlpha" type="matrix" values="0 0 0 0 0 0 0 0 0 0 0 0 0 0 0 0 0 0 127 0" result="hardAlpha"/>
<feOffset dy="3"/>
<feGaussianBlur stdDeviation="1"/>
<feComposite in2="hardAlpha" operator="arithmetic" k2="-1" k3="1"/>
<feColorMatrix type="matrix" values="0 0 0 0 0 0 0 0 0 0 0 0 0 0 0 0 0 0 0.4 0"/>
<feBlend mode="normal" in2="shape" result="effect1_innerShadow_5_149"/>
</filter>
<filter id="filter21_ii_5_149" x="198" y="68" width="35" height="39" filterUnits="userSpaceOnUse" color-interpolation-filters="sRGB">
<feFlood flood-opacity="0" result="BackgroundImageFix"/>
<feBlend mode="normal" in="SourceGraphic" in2="BackgroundImageFix" result="shape"/>
<feColorMatrix in="SourceAlpha" type="matrix" values="0 0 0 0 0 0 0 0 0 0 0 0 0 0 0 0 0 0 127 0" result="hardAlpha"/>
<feOffset dy="-2"/>
<feGaussianBlur stdDeviation="1"/>
<feComposite in2="hardAlpha" operator="arithmetic" k2="-1" k3="1"/>
<feColorMatrix type="matrix" values="0 0 0 0 0 0 0 0 0 0 0 0 0 0 0 0 0 0 0.28 0"/>
<feBlend mode="normal" in2="shape" result="effect1_innerShadow_5_149"/>
<feColorMatrix in="SourceAlpha" type="matrix" values="0 0 0 0 0 0 0 0 0 0 0 0 0 0 0 0 0 0 127 0" result="hardAlpha"/>
<feOffset dy="2"/>
<feGaussianBlur stdDeviation="1"/>
<feComposite in2="hardAlpha" operator="arithmetic" k2="-1" k3="1"/>
<feColorMatrix type="matrix" values="0 0 0 0 0 0 0 0 0 0 0 0 0 0 0 0 0 0 0.28 0"/>
<feBlend mode="normal" in2="effect1_innerShadow_5_149" result="effect2_innerShadow_5_149"/>
</filter>
<filter id="filter22_f_5_149" x="107" y="63" width="93" height="47" filterUnits="userSpaceOnUse" color-interpolation-filters="sRGB">
<feFlood flood-opacity="0" result="BackgroundImageFix"/>
<feBlend mode="normal" in="SourceGraphic" in2="BackgroundImageFix" result="shape"/>
<feGaussianBlur stdDeviation="4.5" result="effect1_foregroundBlur_5_149"/>
</filter>
<linearGradient id="paint0_linear_5_149" x1="300.945" y1="181.905" x2="295.221" y2="189.997" gradientUnits="userSpaceOnUse">
<stop stop-color="#D9D9D9"/>
<stop offset="0.725" stop-color="#838383"/>
<stop offset="1" stop-color="#5A5A5A"/>
</linearGradient>
<linearGradient id="paint1_linear_5_149" x1="300.945" y1="181.905" x2="295.221" y2="189.997" gradientUnits="userSpaceOnUse">
<stop stop-color="#5A5A5A"/>
<stop offset="0.29" stop-color="#838383"/>
<stop offset="1" stop-color="#D9D9D9"/>
</linearGradient>
<linearGradient id="paint2_linear_5_149" x1="13.0921" y1="182.053" x2="7.3684" y2="190.145" gradientUnits="userSpaceOnUse">
<stop stop-color="#5A5A5A"/>
<stop offset="0.29" stop-color="#838383"/>
<stop offset="1" stop-color="#D9D9D9"/>
</linearGradient>
<linearGradient id="paint3_linear_5_149" x1="13.0921" y1="182.053" x2="7.3684" y2="190.145" gradientUnits="userSpaceOnUse">
<stop stop-color="#5A5A5A"/>
<stop offset="0.29" stop-color="#838383"/>
<stop offset="1" stop-color="#D9D9D9"/>
</linearGradient>
<linearGradient id="paint4_linear_5_149" x1="11" y1="4" x2="8.5" y2="14" gradientUnits="userSpaceOnUse">
<stop stop-color="#5A5A5A"/>
<stop offset="0.29" stop-color="#838383"/>
<stop offset="1" stop-color="#D9D9D9"/>
</linearGradient>
<linearGradient id="paint5_linear_5_149" x1="13.0921" y1="5.05263" x2="7.36842" y2="13.1447" gradientUnits="userSpaceOnUse">
<stop stop-color="#5A5A5A"/>
<stop offset="0.29" stop-color="#838383"/>
<stop offset="1" stop-color="#D9D9D9"/>
</linearGradient>
<linearGradient id="paint6_linear_5_149" x1="293.176" y1="8.01017" x2="303.419" y2="10.3711" gradientUnits="userSpaceOnUse">
<stop stop-color="#5A5A5A"/>
<stop offset="0.29" stop-color="#838383"/>
<stop offset="1" stop-color="#D9D9D9"/>
</linearGradient>
<linearGradient id="paint7_linear_5_149" x1="301.092" y1="5.05263" x2="295.368" y2="13.1447" gradientUnits="userSpaceOnUse">
<stop stop-color="#5A5A5A"/>
<stop offset="0.29" stop-color="#838383"/>
<stop offset="1" stop-color="#D9D9D9"/>
</linearGradient>
<linearGradient id="paint8_linear_5_149" x1="155.945" y1="160.905" x2="150.221" y2="168.997" gradientUnits="userSpaceOnUse">
<stop stop-color="#5A5A5A"/>
<stop offset="0.29" stop-color="#838383"/>
<stop offset="1" stop-color="#D9D9D9"/>
</linearGradient>
<linearGradient id="paint9_linear_5_149" x1="155.945" y1="160.905" x2="150.221" y2="168.997" gradientUnits="userSpaceOnUse">
<stop stop-color="#5A5A5A"/>
<stop offset="0.29" stop-color="#838383"/>
<stop offset="1" stop-color="#D9D9D9"/>
</linearGradient>
<linearGradient id="paint10_linear_5_149" x1="153.5" y1="72" x2="153.5" y2="101" gradientUnits="userSpaceOnUse">
<stop stop-color="#EAEAEA"/>
<stop offset="0.505"/>
<stop offset="1" stop-color="#EAEAEA"/>
</linearGradient>
<clipPath id="clip0_5_149">
<rect width="307" height="195" rx="13" fill="white"/>
</clipPath>
</defs>
</svg>
